<svg xmlns="http://www.w3.org/2000/svg" width="254" height="254" viewBox="0 0 254 254">
  <title>banner</title>
  <g>
    <circle cx="127" cy="127" r="127" fill="#4286c2"/>
    <rect x="52.638" y="58.778" width="164.725" height="148.2" fill="#2c5da4"/>
    <rect x="40.91" y="47.05" width="164.725" height="148.2" fill="#adadad"/>
    <rect x="52.27" y="55.579" width="142.005" height="131.141" fill="none" stroke="#f6f6f6" stroke-width="2.461" stroke-dasharray="6.152"/>
    <g>
      <path d="M103.887,123.386a1.751,1.751,0,0,0-.089-.576,1.16,1.16,0,0,0-.351-.487,3.238,3.238,0,0,0-.736-.455,11.031,11.031,0,0,0-1.242-.478,18.425,18.425,0,0,1-1.733-.675,6.875,6.875,0,0,1-1.48-.89,4.118,4.118,0,0,1-1.036-1.2,3.458,3.458,0,0,1,0-3.2,3.623,3.623,0,0,1,1.1-1.2,5.409,5.409,0,0,1,1.664-.769,7.67,7.67,0,0,1,2.094-.271,6.7,6.7,0,0,1,2.052.3,4.84,4.84,0,0,1,1.612.853,3.873,3.873,0,0,1,1.434,3.083H103.9a2.064,2.064,0,0,0-.117-.708,1.435,1.435,0,0,0-.356-.553,1.7,1.7,0,0,0-.59-.361,2.372,2.372,0,0,0-.83-.131,2.857,2.857,0,0,0-.825.108,1.745,1.745,0,0,0-.595.3,1.3,1.3,0,0,0-.361.44,1.183,1.183,0,0,0-.122.529.953.953,0,0,0,.173.558,1.9,1.9,0,0,0,.5.469,4.337,4.337,0,0,0,.787.412q.464.193,1.045.38a13.959,13.959,0,0,1,1.939.768,6.033,6.033,0,0,1,1.438.965,3.6,3.6,0,0,1,1.195,2.774,3.589,3.589,0,0,1-.361,1.635,3.358,3.358,0,0,1-1.021,1.2,4.758,4.758,0,0,1-1.593.74,7.934,7.934,0,0,1-2.076.253,8.367,8.367,0,0,1-1.4-.117,6.835,6.835,0,0,1-1.326-.361,5.833,5.833,0,0,1-1.181-.614,4.047,4.047,0,0,1-.947-.886,4.133,4.133,0,0,1-.628-1.171,4.411,4.411,0,0,1-.229-1.462h3.3a2.777,2.777,0,0,0,.159,1.007,1.576,1.576,0,0,0,.468.661,1.869,1.869,0,0,0,.754.361,4.391,4.391,0,0,0,1.026.107,2.624,2.624,0,0,0,.8-.107,1.6,1.6,0,0,0,.548-.291,1.092,1.092,0,0,0,.314-.427A1.355,1.355,0,0,0,103.887,123.386Z" fill="#1a171b"/>
      <path d="M121.706,127.012h-3.271v-5.7h-4.845v5.7H110.3V113.368h3.289v5.417h4.845v-5.417h3.271Z" fill="#1a171b"/>
      <path d="M136.78,120.471a8.4,8.4,0,0,1-.44,2.812,6.151,6.151,0,0,1-1.232,2.118,5.327,5.327,0,0,1-1.884,1.335,6.059,6.059,0,0,1-2.394.464,6.184,6.184,0,0,1-2.423-.464,5.311,5.311,0,0,1-1.892-1.335,6.151,6.151,0,0,1-1.232-2.118,8.408,8.408,0,0,1-.44-2.812v-.553a8.485,8.485,0,0,1,.436-2.811,6.084,6.084,0,0,1,1.228-2.118,5.371,5.371,0,0,1,1.888-1.34,6.427,6.427,0,0,1,4.816,0,5.384,5.384,0,0,1,1.889,1.34,6.216,6.216,0,0,1,1.236,2.118,8.319,8.319,0,0,1,.445,2.811Zm-3.346-.571a5.747,5.747,0,0,0-.679-3.088,2.346,2.346,0,0,0-3.917,0,5.937,5.937,0,0,0-.651,3.088v.571a5.9,5.9,0,0,0,.665,3.083,2.175,2.175,0,0,0,1.978,1.078,2.15,2.15,0,0,0,1.93-1.073,5.826,5.826,0,0,0,.675-3.088Z" fill="#1a171b"/>
      <path d="M143.2,122.383v4.629h-3.289V113.368h5.444a6.615,6.615,0,0,1,2.211.347,4.858,4.858,0,0,1,1.668.965,4.2,4.2,0,0,1,1.05,1.467,4.634,4.634,0,0,1,.365,1.851,4.317,4.317,0,0,1-.365,1.8,3.888,3.888,0,0,1-1.05,1.382,4.836,4.836,0,0,1-1.668.891,7.266,7.266,0,0,1-2.211.313Zm0-2.539h2.155a2.565,2.565,0,0,0,.885-.136,1.611,1.611,0,0,0,.609-.379,1.491,1.491,0,0,0,.352-.581,2.289,2.289,0,0,0,.112-.731,2.8,2.8,0,0,0-.112-.8,1.893,1.893,0,0,0-.352-.67,1.721,1.721,0,0,0-.609-.464,2.075,2.075,0,0,0-.885-.173H143.2Z" fill="#1a171b"/>
    </g>
  </g>
</svg>
